<?xml version="1.0" standalone="no"?>
<!DOCTYPE svg PUBLIC "-//W3C//DTD SVG 20010904//EN"
 "http://www.w3.org/TR/2001/REC-SVG-20010904/DTD/svg10.dtd">
<svg version="1.0" xmlns="http://www.w3.org/2000/svg"
 width="100.000000pt" height="100.000000pt" viewBox="0 0 100.000000 100.000000"
 preserveAspectRatio="xMidYMid meet">

<g transform="translate(0.000000,500.000000) scale(0.100000,-0.100000)"
fill="#000000" stroke="none">
<path d="M455 2689 c-41 -23 -45 -39 -45 -166 0 -103 2 -123 15 -123 11 0 15
12 15 45 l0 45 110 0 110 0 0 -45 c0 -38 3 -45 20 -45 19 0 20 7 20 119 0 112
-2 122 -24 148 -23 26 -30 28 -113 31 -53 1 -96 -2 -108 -9z m193 -41 c7 -7
12 -36 12 -65 l0 -53 -110 0 -110 0 0 43 c0 23 7 53 16 65 14 20 24 22 98 22
50 0 87 -5 94 -12z"/>
<path d="M830 2550 c0 -127 2 -150 15 -150 12 0 15 20 15 118 l1 117 112 -118
c62 -64 120 -117 130 -117 15 0 17 14 17 150 0 143 -1 150 -20 150 -18 0 -20
-8 -22 -114 l-3 -114 -105 114 c-58 63 -113 114 -122 114 -16 0 -18 -14 -18
-150z"/>
<path d="M1250 2550 c0 -143 1 -150 20 -150 19 0 20 7 20 150 0 143 -1 150
-20 150 -19 0 -20 -7 -20 -150z"/>
<path d="M1410 2551 c0 -143 1 -151 20 -151 18 0 20 8 22 113 l3 112 60 -87
c33 -49 63 -88 66 -88 3 0 33 39 65 86 l59 86 3 -111 c2 -103 4 -111 22 -111
19 0 20 7 20 150 0 143 -1 150 -20 150 -13 0 -38 -28 -80 -91 -34 -49 -65 -89
-70 -87 -5 2 -35 41 -68 88 -38 56 -66 86 -80 88 -22 3 -22 2 -22 -147z"/>
<path d="M1880 2550 l0 -150 145 0 c138 0 145 1 145 20 0 19 -7 20 -130 20
l-130 0 0 45 0 45 110 0 c103 0 110 1 110 20 0 19 -7 20 -110 20 l-110 0 0 45
0 45 130 0 c123 0 130 1 130 20 0 19 -7 20 -145 20 l-145 0 0 -150z"/>
<path d="M2540 2550 c0 -143 1 -150 20 -150 18 0 20 7 20 65 l0 65 105 0 c98
0 105 1 105 20 0 19 -7 20 -105 20 l-105 0 0 45 0 45 125 0 c118 0 125 1 125
20 0 19 -7 20 -145 20 l-145 0 0 -150z"/>
<path d="M2950 2550 c0 -143 1 -150 20 -150 19 0 20 7 20 150 0 143 -1 150
-20 150 -19 0 -20 -7 -20 -150z"/>
<path d="M3120 2550 l0 -150 145 0 c138 0 145 1 145 20 0 19 -7 20 -130 20
l-130 0 0 130 c0 109 -2 130 -15 130 -13 0 -15 -23 -15 -150z"/>
<path d="M3500 2680 c0 -18 7 -20 60 -20 l60 0 0 -130 c0 -123 1 -130 20 -130
19 0 20 7 20 130 l0 130 65 0 c58 0 65 2 65 20 0 19 -7 20 -145 20 -138 0
-145 -1 -145 -20z"/>
<path d="M3890 2550 l0 -150 150 0 c143 0 150 1 150 20 0 19 -7 20 -130 20
l-130 0 0 45 0 45 105 0 c98 0 105 1 105 20 0 19 -7 20 -105 20 l-105 0 0 45
0 45 130 0 c123 0 130 1 130 20 0 19 -7 20 -150 20 l-150 0 0 -150z"/>
<path d="M4310 2551 c0 -128 2 -151 15 -151 11 0 15 12 15 45 l0 45 73 0 73 0
44 -45 c66 -67 100 -56 41 13 l-28 33 28 29 c39 38 41 105 5 147 -24 27 -27
28 -145 31 l-121 4 0 -151z m238 97 c7 -7 12 -30 12 -53 0 -23 -5 -46 -12 -53
-8 -8 -47 -12 -110 -12 l-98 0 0 65 0 65 98 0 c63 0 102 -4 110 -12z"/>
</g>
</svg>
